<?xml version="1.0" encoding="UTF-8" standalone="no"?>
<!-- Created with Inkscape (http://www.inkscape.org/) -->

<svg
   xmlns:dc="http://purl.org/dc/elements/1.1/"
   xmlns:cc="http://creativecommons.org/ns#"
   xmlns:rdf="http://www.w3.org/1999/02/22-rdf-syntax-ns#"
   xmlns:svg="http://www.w3.org/2000/svg"
   xmlns="http://www.w3.org/2000/svg"
   xmlns:sodipodi="http://sodipodi.sourceforge.net/DTD/sodipodi-0.dtd"
   xmlns:inkscape="http://www.inkscape.org/namespaces/inkscape"
   width="150mm"
   height="150mm"
   viewBox="0 0 150 150"
   version="1.1"
   id="svg8"
   sodipodi:docname="favicon.svg"
   inkscape:version="0.92.5 (2060ec1f9f, 2020-04-08)">
  <defs
     id="defs2">
    <inkscape:perspective
       sodipodi:type="inkscape:persp3d"
       inkscape:vp_x="0 : 148.49999 : 1"
       inkscape:vp_y="0 : 999.99996 : 0"
       inkscape:vp_z="210.00001 : 148.49999 : 1"
       inkscape:persp3d-origin="105 : 98.999996 : 1"
       id="perspective827" />
  </defs>
  <sodipodi:namedview
     id="base"
     pagecolor="#ffffff"
     bordercolor="#666666"
     borderopacity="1.0"
     inkscape:pageopacity="0.0"
     inkscape:pageshadow="2"
     inkscape:zoom="0.98994949"
     inkscape:cx="352.79396"
     inkscape:cy="358.24109"
     inkscape:document-units="mm"
     inkscape:current-layer="layer1"
     showgrid="false"
     inkscape:window-width="1920"
     inkscape:window-height="1001"
     inkscape:window-x="0"
     inkscape:window-y="0"
     inkscape:window-maximized="1" />
  <metadata
     id="metadata5">
    <rdf:RDF>
      <cc:Work
         rdf:about="">
        <dc:format>image/svg+xml</dc:format>
        <dc:type
           rdf:resource="http://purl.org/dc/dcmitype/StillImage" />
        <dc:title></dc:title>
      </cc:Work>
    </rdf:RDF>
  </metadata>
  <g
     inkscape:label="Layer 1"
     inkscape:groupmode="layer"
     id="layer1"
     transform="translate(0,-147)">
    <path
       style="fill:#000000;fill-opacity:1;stroke:none;stroke-width:12.42594528;stroke-linecap:round;stroke-linejoin:round;stroke-miterlimit:1;stroke-dasharray:none;stroke-opacity:1;paint-order:stroke markers fill"
       d="m 17.804408,168.54784 c -8.8532281,0 -15.9803849,7.04659 -15.9803849,15.79972 v 69.2201 c 0,8.75312 7.1271568,15.79971 15.9803849,15.79971 H 132.12899 c 8.85322,0 15.98037,-7.04659 15.98037,-15.79971 v -69.2201 c 0,-8.75313 -7.12715,-15.79972 -15.98037,-15.79972 z m 120.719992,5.81093 a 5.9010496,5.8343303 0 0 1 4.13815,10.07654 L 79.059513,245.9127 a 5.9010496,5.8343303 0 0 1 -8.251108,0 L 7.2060026,184.43531 a 5.9010496,5.8343303 0 0 1 3.9939924,-10.06535 5.9010496,5.8343303 0 0 1 4.253967,1.72207 L 74.933959,233.582 134.41397,176.09203 a 5.9010496,5.8343303 0 0 1 4.11043,-1.73326 z"
       id="rect815"
       inkscape:connector-curvature="0" />
  </g>
</svg>
